<?xml version="1.0" encoding="utf-8"?>
<!-- Generator: Adobe Illustrator 26.1.0, SVG Export Plug-In . SVG Version: 6.00 Build 0)  -->
<svg version="1.1" id="Layer_1" xmlns="http://www.w3.org/2000/svg" xmlns:xlink="http://www.w3.org/1999/xlink" x="0px" y="0px"
	 viewBox="0 0 37.1 36.6" style="enable-background:new 0 0 37.1 36.6;" xml:space="preserve">
<style type="text/css">
	.st0{fill-rule:evenodd;clip-rule:evenodd;fill:url(#SVGID_1_);}
</style>
<linearGradient id="SVGID_1_" gradientUnits="userSpaceOnUse" x1="6.714862e-02" y1="24.1639" x2="37.4917" y2="8.6954">
	<stop  offset="9.119099e-02" style="stop-color:#167CF9"/>
	<stop  offset="0.2658" style="stop-color:#1B87EE"/>
	<stop  offset="0.5725" style="stop-color:#29A4D2"/>
	<stop  offset="0.9729" style="stop-color:#40D4A4"/>
	<stop  offset="1" style="stop-color:#42D7A1"/>
</linearGradient>
<path class="st0" d="M20.7,4.2L28,0.1c0.2-0.1,0.4-0.1,0.6,0l7.3,4.2c0.2,0.1,0.2,0.4,0,0.5L28.7,9c-0.2,0.1-0.4,0.1-0.6,0l-7.4-4.2
	C20.5,4.7,20.5,4.4,20.7,4.2z M1.4,4.2l7.2-4.2C8.8,0,9,0,9.2,0.1l17,9.7c0.2,0.1,0.2,0.4,0,0.5L19,14.5c-0.2,0.1-0.4,0.1-0.6,0
	l-17-9.8C1.2,4.7,1.2,4.4,1.4,4.2z M19.4,16.7v8.4c0,0.2,0.3,0.4,0.5,0.3l7.4-4.2c0.1,0,0.1-0.1,0.1-0.3v-8.6c0-0.2-0.3-0.4-0.5-0.3
	l-7.2,4.1C19.5,16.3,19.4,16.5,19.4,16.7L19.4,16.7z M36.6,6.5l-7.2,4.1c-0.2,0.1-0.3,0.3-0.4,0.5l0,10.4c0,0.2-0.1,0.4-0.3,0.5
	l-9,5.2c-0.2,0.1-0.3,0.3-0.3,0.5v8.4c0,0.2,0.3,0.4,0.5,0.3l16.9-9.7c0.2-0.1,0.3-0.3,0.3-0.5V6.7C37.1,6.5,36.8,6.4,36.6,6.5
	L36.6,6.5z M17.8,16.6l0,8.6c0,0.2-0.2,0.3-0.4,0.2l-8.9-5.1c-0.2-0.1-0.5,0-0.5,0.3v10.1c0,0.2-0.3,0.4-0.5,0.3l-7.3-4.2
	C0.1,26.6,0,26.4,0,26.2V6.6c0-0.2,0.3-0.4,0.5-0.3l17,9.8C17.6,16.2,17.8,16.4,17.8,16.6z M17.5,27.3l-7.3-4.2
	c-0.2-0.1-0.5,0-0.5,0.3v8.4c0,0.2,0.1,0.4,0.3,0.5l7.3,4.2c0.2,0.1,0.5,0,0.5-0.3v-8.4C17.8,27.6,17.6,27.4,17.5,27.3z"/>
</svg>
